<svg width="100" height="100" viewBox="0 0 100 100" fill="none" xmlns="http://www.w3.org/2000/svg">
<path d="M90.625 50H9.375C9.375 63.5417 17.5 90.625 50 90.625C82.5 90.625 90.625 63.5417 90.625 50Z" fill="#17BB80"/>
<path d="M15.625 28.125V50H40.625L37.5 43.75L34.375 31.25L31.25 25L25 21.875L15.625 28.125Z" fill="#C89AFE"/>
<path d="M46.875 43.75V50H78.125V43.75L71.875 34.375L62.5 31.25L53.125 34.375L46.875 43.75Z" fill="#FFD155"/>
<path d="M81.25 46.875C81.2473 43.5207 80.3452 40.2286 78.6376 37.3415C76.9301 34.4543 74.4797 32.0779 71.5416 30.4597C73.756 28.1497 74.9947 25.075 75 21.875H68.75C68.7481 23.532 68.089 25.1206 66.9173 26.2923C65.7456 27.464 64.157 28.1231 62.5 28.125C57.589 28.1318 52.8764 30.0639 49.3739 33.5065C45.8715 36.949 43.8584 41.6276 43.7669 46.5378C39.7599 42.457 37.5103 36.9692 37.5 31.25C37.4918 28.4862 36.567 25.8033 34.8704 23.6215C33.1739 21.4397 30.8015 19.8823 28.125 19.1934V12.5H21.875V19.1934C19.1985 19.8823 16.8261 21.4397 15.1296 23.6215C13.433 25.8033 12.5082 28.4862 12.5 31.25V46.875H6.25V50C6.25 61.6032 10.8594 72.7312 19.0641 80.9359C27.2688 89.1406 38.3968 93.75 50 93.75C61.6032 93.75 72.7312 89.1406 80.9359 80.9359C89.1406 72.7312 93.75 61.6032 93.75 50V46.875H81.25ZM62.5 34.375C65.8141 34.3787 68.9913 35.6969 71.3347 38.0403C73.6781 40.3837 74.9963 43.5609 75 46.875H50C50.0037 43.5609 51.3219 40.3837 53.6653 38.0403C56.0087 35.6969 59.1859 34.3787 62.5 34.375ZM18.75 31.25C18.75 29.5924 19.4085 28.0027 20.5806 26.8306C21.7527 25.6585 23.3424 25 25 25C26.6576 25 28.2473 25.6585 29.4194 26.8306C30.5915 28.0027 31.25 29.5924 31.25 31.25C31.2627 36.8177 32.9292 42.2561 36.0381 46.875H18.75V31.25ZM50 87.5C40.5987 87.4882 31.5437 83.9505 24.6245 77.5858C17.7052 71.2212 13.425 62.4926 12.6297 53.125H87.3703C86.575 62.4926 82.2948 71.2212 75.3755 77.5858C68.4563 83.9505 59.4013 87.4882 50 87.5Z" fill="#1B1F24"/>
</svg>
